<?xml version="1.0" standalone="no"?>
<!DOCTYPE svg PUBLIC "-//W3C//DTD SVG 20010904//EN"
 "http://www.w3.org/TR/2001/REC-SVG-20010904/DTD/svg10.dtd">
<svg version="1.0" xmlns="http://www.w3.org/2000/svg"
 width="600.000000pt" height="600.000000pt" viewBox="0 0 600.000000 600.000000"
 preserveAspectRatio="xMidYMid meet">
<metadata>
Created by potrace 1.11, written by Peter Selinger 2001-2013
</metadata>
<g transform="translate(0.000000,600.000000) scale(0.100000,-0.100000)"
fill="#000000" stroke="none">
<path d="M887 5129 c4 -88 2 -128 -11 -177 -16 -63 -78 -170 -129 -223 -43
-45 -135 -168 -168 -226 -92 -160 -102 -355 -27 -483 23 -38 78 -100 89 -100
3 0 9 27 13 60 12 107 39 147 149 222 123 83 192 169 222 273 20 67 16 188
-10 340 -3 17 -8 48 -11 70 -13 83 -94 325 -120 354 -2 2 -1 -48 3 -110z"/>
<path d="M1116 4627 c-7 -33 -4 -120 9 -227 9 -74 6 -202 -6 -238 -7 -20 -22
-55 -35 -77 -12 -22 -27 -60 -34 -85 -9 -33 -26 -59 -66 -97 -30 -28 -64 -54
-77 -57 -12 -3 3 -3 34 -1 129 8 266 118 308 246 32 98 18 198 -49 334 -48
100 -67 154 -73 210 -3 29 -3 29 -11 -8z"/>
<path d="M1069 4548 c-7 -29 -14 -55 -14 -58 -21 -91 -64 -187 -106 -234 -31
-36 -34 -44 -36 -115 -1 -42 -8 -95 -17 -118 -19 -54 -8 -55 53 -5 63 51 95
88 128 147 26 47 28 57 28 165 0 103 -12 260 -20 268 -1 2 -9 -21 -16 -50z"/>
<path d="M2890 3800 c13 -8 13 -10 -2 -10 -10 0 -22 -9 -28 -20 -6 -11 -18
-20 -28 -20 -9 0 -35 -16 -56 -35 -22 -19 -45 -35 -52 -35 -8 0 -11 -9 -9 -20
2 -11 0 -18 -5 -15 -12 8 -50 -17 -50 -32 0 -7 -8 -17 -17 -22 -10 -6 -14 -11
-9 -11 6 0 21 10 34 23 l25 22 -14 -23 c-8 -12 -31 -28 -52 -34 -35 -11 -72
-48 -47 -48 5 0 10 5 10 10 0 6 8 10 18 10 14 -1 13 -4 -7 -20 -13 -11 -21
-20 -17 -20 3 0 -2 -9 -11 -20 -21 -25 -28 -19 -13 11 l12 22 -33 -24 c-36
-25 -85 -34 -96 -16 -4 6 -1 7 6 3 8 -5 12 -3 10 5 -3 28 1 40 13 33 7 -4 8
-3 4 4 -5 8 -15 8 -32 2 -37 -14 -43 -12 -14 6 l25 15 -25 -7 c-61 -16 -143
-70 -204 -135 -36 -38 -70 -69 -77 -69 -9 0 -8 -4 1 -15 11 -13 8 -15 -15 -15
-25 0 -26 -2 -14 -17 10 -11 10 -14 2 -9 -7 4 -23 0 -35 -8 -12 -9 -18 -16
-13 -16 6 0 3 -5 -5 -10 -12 -8 -12 -10 -1 -10 8 0 20 8 27 18 13 16 13 16 14
-1 0 -19 -57 -77 -75 -77 -6 0 -27 -16 -46 -36 l-34 -35 30 15 c45 24 43 10
-7 -42 -26 -26 -50 -59 -53 -73 -7 -29 -49 -82 -58 -73 -3 3 -3 -3 0 -15 3
-11 2 -29 -2 -38 -5 -10 -9 -24 -11 -31 -5 -28 -14 -43 -22 -38 -4 2 -9 -5 -9
-17 -2 -17 0 -19 7 -7 6 9 10 10 10 3 0 -16 -28 -43 -45 -43 -17 0 -47 -58
-34 -66 12 -7 12 -104 0 -104 -5 0 -8 16 -7 35 3 71 -18 11 -30 -85 -7 -60 -7
-282 1 -340 4 -30 8 -64 10 -75 19 -144 84 -340 161 -484 236 -444 668 -713
1143 -711 117 0 134 2 226 21 28 6 61 13 74 15 94 19 283 107 400 187 79 54
233 200 292 277 223 289 349 716 306 1034 -16 124 -103 154 -244 86 -99 -49
-121 -84 -269 -430 -83 -191 -101 -221 -157 -250 -37 -19 -110 -17 -140 3 -22
14 -26 14 -47 0 -40 -28 -100 -41 -143 -30 -44 11 -104 65 -119 108 -6 19 -19
30 -39 34 -16 4 -49 22 -73 40 -25 18 -52 32 -62 31 -28 -4 -112 20 -169 48
-114 57 -193 141 -234 251 -24 65 -31 98 -36 182 -2 34 -7 67 -10 74 -7 10 -7
108 -1 189 2 19 14 63 28 97 14 35 22 60 17 57 -5 -3 -9 2 -9 10 0 9 6 16 14
16 21 0 31 21 15 31 -10 6 -7 10 13 18 14 5 29 15 34 22 4 8 3 10 -4 5 -11 -7
-17 8 -12 29 1 6 3 16 3 23 0 6 4 12 8 12 4 0 11 9 14 20 4 11 16 31 29 44 16
19 26 22 39 14 10 -5 14 -15 11 -21 -4 -7 -5 -10 -1 -7 3 3 6 10 7 15 1 6 11
20 22 33 17 17 18 22 6 22 -8 0 -19 -9 -24 -20 -7 -15 -13 -17 -24 -10 -13 9
-13 12 1 23 9 6 17 15 17 20 1 4 9 18 18 32 10 15 13 32 9 46 -6 17 -4 21 8
16 11 -4 14 -1 11 7 -5 13 80 96 97 96 5 0 9 5 9 10 0 7 -6 7 -19 1 -15 -8
-20 -7 -25 5 -4 11 -2 15 7 11 8 -3 19 -2 26 3 10 6 10 12 -1 29 -12 20 -10
25 17 47 17 13 35 22 42 20 7 -3 10 1 7 8 -3 8 13 25 40 42 25 16 47 35 50 42
3 7 -6 4 -20 -7 -15 -11 -31 -18 -38 -14 -6 3 -8 3 -4 -2 10 -11 -55 -43 -66
-33 -11 9 21 37 42 38 7 0 10 5 7 10 -8 13 -58 1 -68 -17 -4 -7 -15 -13 -23
-13 -12 0 -12 4 -4 20 9 16 8 20 -7 20 -13 0 -14 3 -5 12 9 9 15 8 25 -5 11
-16 14 -16 32 -3 17 12 18 17 6 28 -10 9 -12 9 -7 1 4 -7 2 -13 -3 -13 -15 0
-14 23 2 39 10 11 9 12 -1 7 -7 -4 -43 -9 -80 -11 -52 -2 -61 -1 -40 7 28 10
44 40 32 59 -4 8 -3 9 5 5 6 -4 19 -2 27 5 12 10 12 14 2 20 -7 5 -17 9 -23 9
-5 0 -3 -5 5 -10z m-723 -633 c-8 -12 -18 -38 -22 -57 -4 -19 -12 -41 -17 -47
-6 -7 -11 -25 -12 -40 -3 -39 -26 -103 -37 -103 -6 0 -7 -5 -4 -10 3 -6 0 -17
-8 -25 -9 -8 -18 -32 -22 -54 -4 -22 -15 -50 -26 -62 -10 -12 -19 -28 -19 -36
0 -7 -6 -13 -12 -13 -10 0 -10 -2 -1 -8 7 -5 9 -13 4 -21 -7 -11 -10 -9 -16 8
-3 11 -3 25 0 31 3 5 -1 10 -10 10 -9 0 -14 4 -10 9 3 6 15 8 26 6 17 -4 19
-2 9 10 -15 18 -24 20 -14 3 4 -7 3 -8 -5 -4 -6 4 -9 10 -7 14 2 4 7 24 10 46
7 44 14 58 26 51 4 -3 14 3 21 12 11 13 11 15 1 9 -10 -6 -11 -1 -6 21 4 15
12 37 18 48 5 11 9 24 8 28 -1 5 7 11 18 14 11 3 20 10 20 15 0 5 -4 6 -10 3
-6 -3 -7 1 -4 9 3 9 12 16 19 16 13 0 30 28 26 44 -1 5 2 12 6 15 4 3 17 23
27 44 11 20 23 37 29 37 5 0 3 -10 -6 -23z"/>
<path d="M2009 2835 c-1 -11 -1 -24 0 -29 1 -5 -5 -6 -13 -3 -10 4 -13 1 -9
-9 9 -25 26 -17 22 12 0 4 4 10 10 13 6 4 7 12 1 21 -8 12 -10 11 -11 -5z"/>
<path d="M3066 3778 c-4 -15 -9 -19 -13 -12 -11 15 -43 13 -43 -2 0 -8 -6 -11
-14 -8 -8 3 -17 1 -20 -4 -3 -6 1 -13 10 -16 22 -8 101 30 101 49 0 23 -14 18
-21 -7z"/>
<path d="M4165 3773 c-163 -19 -302 -61 -449 -136 -363 -185 -631 -549 -721
-979 -34 -160 -39 -361 -11 -415 22 -44 58 -66 99 -61 31 3 33 2 34 -29 1 -38
23 -76 56 -97 32 -21 82 -26 104 -11 17 12 18 10 14 -31 -4 -51 15 -87 57
-107 29 -14 34 -15 74 -4 27 7 68 62 68 91 0 27 14 17 33 -23 22 -48 59 -64
112 -50 19 6 42 20 50 32 7 12 44 94 80 182 138 333 187 410 297 466 162 83
368 41 504 -103 88 -94 118 -172 130 -344 12 -166 7 -270 -16 -329 -6 -16 -12
-32 -13 -35 0 -3 -6 -16 -13 -29 -7 -13 -10 -30 -7 -38 4 -9 -2 -16 -16 -20
-11 -3 -21 -13 -21 -22 0 -14 2 -14 10 -1 5 8 10 10 10 4 0 -14 -25 -36 -32
-29 -3 3 -11 -2 -19 -12 -8 -9 -9 -14 -3 -10 7 4 12 -3 12 -20 0 -28 -51 -117
-62 -106 -3 3 -6 2 -6 -4 0 -5 -11 -23 -25 -39 -14 -16 -25 -33 -25 -37 0 -5
-4 -6 -8 -3 -5 3 -14 -10 -20 -29 -5 -19 -6 -33 -1 -29 24 15 4 -14 -37 -53
-48 -45 -60 -51 -66 -31 -3 9 -6 9 -12 0 -4 -7 -2 -12 6 -12 7 0 2 -9 -12 -20
-24 -18 -10 -24 18 -7 11 7 13 4 12 -20 -1 -5 -9 -7 -19 -5 -10 1 -24 -5 -32
-15 -12 -15 -12 -16 3 -10 10 3 20 2 23 -2 3 -5 -8 -8 -24 -7 -16 1 -29 -1
-28 -5 1 -3 -7 -15 -18 -25 -12 -11 -15 -15 -8 -10 8 5 13 4 13 -3 0 -7 5 -9
10 -6 6 4 7 11 4 17 -4 7 -2 8 5 4 6 -4 19 -2 27 5 8 6 17 9 20 6 3 -3 -5 -11
-17 -18 -13 -6 -34 -22 -48 -36 -14 -13 -38 -29 -53 -36 -16 -6 -28 -15 -28
-20 0 -4 9 -3 21 3 11 7 23 9 27 6 3 -4 16 4 29 16 17 15 26 19 34 11 8 -8 7
-13 -2 -18 -8 -5 -10 -4 -5 3 4 7 2 12 -3 12 -6 0 -11 -5 -11 -11 0 -6 -10
-19 -22 -28 -19 -16 -19 -18 -4 -24 10 -4 19 -1 22 8 3 7 12 11 20 8 7 -3 17
2 20 11 3 9 12 16 20 16 17 0 18 -12 2 -28 -9 -9 -7 -12 12 -12 27 0 22 -9 -9
-15 -12 -2 -19 0 -16 5 11 18 -14 19 -36 0 l-24 -19 23 6 c16 4 22 1 22 -10 0
-8 -6 -18 -12 -20 -7 -3 2 -6 20 -6 19 -1 32 4 32 12 0 8 3 9 8 1 4 -6 22 -11
40 -10 19 1 36 -3 39 -8 4 -5 1 -6 -5 -2 -7 4 -12 2 -12 -4 0 -6 -6 -10 -12
-9 -7 1 -22 1 -33 -1 -20 -1 -20 -2 -1 -9 19 -7 19 -9 -7 -31 -26 -23 -23 -40
8 -40 6 0 3 5 -5 10 -13 8 -13 10 1 10 9 0 20 7 23 16 4 10 14 14 25 11 10 -2
25 3 33 12 22 24 52 46 71 54 9 3 17 11 17 17 0 6 6 8 13 4 7 -5 7 -1 -3 12
-8 10 -11 16 -6 12 13 -11 66 13 66 30 0 13 -4 12 -22 -4 -20 -17 -20 -16 2
13 14 18 29 32 34 32 5 1 3 -6 -4 -14 -18 -21 -7 -19 20 5 13 11 29 20 37 20
7 0 13 7 13 15 0 8 -5 15 -11 15 -5 0 -7 -4 -4 -10 3 -6 -1 -7 -10 -4 -14 6
-14 9 4 25 24 23 31 24 31 5 0 -10 10 -5 31 14 26 23 36 27 59 20 16 -5 31 -5
35 -2 4 4 1 -5 -6 -20 -6 -15 -16 -25 -22 -21 -6 3 -7 1 -4 -4 4 -6 19 -8 34
-5 25 5 27 4 14 -11 -10 -13 1 -11 45 9 63 28 116 64 149 101 11 13 27 23 34
23 8 0 11 3 8 6 -3 4 5 15 18 26 14 11 25 26 25 34 0 8 9 14 19 14 10 0 21 7
25 15 3 8 13 15 21 15 9 0 14 4 11 9 -3 5 1 12 10 15 9 4 14 9 11 13 -4 3 -13
0 -22 -7 -9 -7 -18 -11 -20 -8 -13 12 10 37 54 61 26 15 55 35 64 45 17 19 17
19 -10 15 -27 -5 -26 -3 17 38 25 24 61 70 80 101 23 38 37 54 42 45 4 -7 6 1
4 18 -3 32 16 80 28 68 4 -4 4 0 1 9 -4 10 -3 23 1 30 5 7 9 19 10 26 3 16 34
41 52 42 12 0 14 8 18 75 4 89 4 91 13 76 5 -8 7 -21 3 -29 -3 -9 -1 -13 5 -9
11 7 19 38 31 117 15 94 7 411 -12 505 -121 604 -558 1053 -1111 1140 -46 8
-246 13 -290 8z m1152 -1859 c-3 -17 0 -24 11 -24 12 0 13 -3 5 -11 -15 -15
-43 -4 -43 16 0 8 4 15 9 15 5 0 7 10 3 22 -4 15 -2 19 7 13 7 -4 11 -18 8
-31z m-34 -69 c-12 -8 -21 -24 -20 -35 1 -14 4 -16 14 -8 15 12 17 22 3 13 -5
-3 -10 -3 -10 2 1 9 50 47 54 41 2 -1 -5 -28 -16 -58 -10 -30 -16 -45 -14 -33
2 13 -1 20 -8 17 -6 -2 -11 -17 -12 -34 -1 -34 -52 -140 -71 -147 -7 -3 -10
-10 -6 -17 3 -6 -4 -2 -16 9 -12 11 -18 21 -12 23 6 2 11 8 11 13 0 6 -5 7
-11 4 -5 -4 -3 10 6 31 9 21 20 41 26 45 6 3 11 10 11 15 0 5 8 28 19 51 10
23 19 47 19 54 0 22 32 51 44 39 7 -7 3 -15 -11 -25z m-115 -292 c-17 -39 -61
-103 -71 -103 -5 0 1 13 12 29 12 16 21 34 21 40 0 7 7 28 15 48 10 24 19 33
25 27 7 -7 6 -20 -2 -41z m-453 -367 c-11 -8 -24 -12 -28 -9 -11 7 12 23 32
23 11 0 9 -4 -4 -14z"/>
<path d="M5241 1713 c-1 -6 -4 -20 -7 -30 -5 -17 -5 -17 6 0 6 10 9 23 6 30
-3 9 -5 9 -5 0z"/>
<path d="M5205 1629 c-4 -6 -5 -12 -2 -15 2 -3 7 2 10 11 7 17 1 20 -8 4z"/>
<path d="M567 3762 l-187 -2 2 -358 3 -357 165 -1 c91 -1 167 -2 170 -3 3 -1
6 -470 5 -1043 0 -574 1 -1050 3 -1058 3 -13 45 -15 320 -13 174 1 322 2 327
2 7 1 10 477 10 1416 l0 1415 -190 0 c-104 0 -246 2 -315 3 -69 1 -209 1 -313
-1z"/>
<path d="M3060 3740 c-9 -6 -10 -10 -3 -10 6 0 15 5 18 10 8 12 4 12 -15 0z"/>
<path d="M2920 3730 c-13 -8 -13 -10 2 -10 9 0 20 5 23 10 8 13 -5 13 -25 0z"/>
<path d="M2987 3715 c2 -8 13 -12 23 -10 10 2 24 -3 31 -11 10 -12 9 -13 -3
-9 -18 7 -32 -21 -16 -31 7 -4 8 -3 4 4 -4 7 -1 12 8 12 8 0 20 10 27 21 8 16
8 20 0 14 -7 -4 -17 -2 -24 3 -21 16 -56 21 -50 7z"/>
<path d="M3055 3659 c-11 -16 -1 -19 13 -3 7 8 8 14 3 14 -5 0 -13 -5 -16 -11z"/>
<path d="M2986 3537 c3 -8 11 -14 19 -14 20 0 19 4 -5 17 -15 8 -18 8 -14 -3z"/>
<path d="M2948 3524 c-8 -7 2 -44 12 -44 8 0 20 24 20 41 0 10 -23 12 -32 3z"/>
<path d="M3028 3503 c-10 -2 -18 -9 -18 -14 0 -6 10 -5 23 2 37 20 36 23 -5
12z"/>
<path d="M2919 3393 c-13 -17 -13 -17 6 -3 11 8 22 16 24 17 2 2 0 3 -6 3 -6
0 -17 -8 -24 -17z"/>
<path d="M2865 3260 c-4 -6 -10 -8 -15 -5 -5 3 -11 1 -15 -5 -4 -6 -11 -7 -17
-4 -7 4 -8 2 -4 -5 6 -9 11 -9 21 -1 9 7 14 8 17 0 1 -5 9 -1 16 10 7 11 10
20 8 20 -3 0 -8 -5 -11 -10z"/>
<path d="M2745 3132 c-12 -8 -48 -62 -41 -62 2 0 20 16 39 35 30 30 32 49 2
27z"/>
<path d="M1710 2599 c-6 -11 -10 -25 -8 -30 2 -5 8 4 15 21 13 34 9 40 -7 9z"/>
<path d="M5586 2051 c-4 -7 -5 -15 -2 -18 9 -9 19 4 14 18 -4 11 -6 11 -12 0z"/>
<path d="M4542 1575 c-33 -36 -38 -45 -23 -45 10 0 65 69 59 75 -2 2 -18 -12
-36 -30z"/>
<path d="M4473 1513 c4 -3 -2 -16 -12 -27 -14 -15 -17 -26 -11 -36 8 -13 10
-12 10 3 0 9 5 17 11 17 5 0 7 5 3 12 -5 8 -2 9 10 5 14 -6 15 -3 6 13 -6 11
-14 20 -17 20 -3 0 -3 -3 0 -7z"/>
<path d="M4408 1435 c-9 -12 -14 -25 -11 -29 3 -3 12 6 20 21 17 33 13 38 -9
8z"/>
<path d="M4225 1190 c-3 -5 -2 -10 4 -10 5 0 13 5 16 10 3 6 2 10 -4 10 -5 0
-13 -4 -16 -10z"/>
<path d="M4190 1040 c-9 -6 -10 -10 -3 -10 6 0 15 5 18 10 8 12 4 12 -15 0z"/>
<path d="M4196 1004 c-9 -22 -8 -23 14 -17 23 6 26 19 6 26 -8 3 -17 -1 -20
-9z"/>
<path d="M4230 974 c-14 -8 -17 -13 -7 -10 10 3 25 6 33 6 8 0 14 5 14 10 0
14 -10 12 -40 -6z"/>
<path d="M4182 953 c-10 -4 -9 -8 4 -18 16 -11 15 -14 -12 -28 l-29 -15 27 1
c14 1 24 5 21 10 -2 4 7 7 21 7 14 0 26 5 26 10 0 6 10 10 23 11 12 0 16 3 9
6 -6 2 -10 9 -6 14 6 11 -9 12 -20 2 -12 -12 -58 -15 -51 -3 7 11 6 11 -13 3z"/>
<path d="M4310 950 c0 -5 7 -7 15 -4 8 4 15 8 15 10 0 2 -7 4 -15 4 -8 0 -15
-4 -15 -10z"/>
</g>
</svg>
